# Blender 5.2.2 LTS
# www.blender.org
mtllib Untitled.mtl
o Cube
v 1.000000 -1.000000 1.000113 1.0000 1.0000 1.0000
v 1.000000 1.000000 0.999887 1.0000 1.0000 1.0000
v 1.000000 -1.000000 -0.999887 1.0000 1.0000 1.0000
v 1.000000 1.000000 -1.000113 1.0000 1.0000 1.0000
v -1.000000 -1.000000 1.000113 1.0000 1.0000 1.0000
v -1.000000 1.000000 0.999887 1.0000 1.0000 1.0000
v -1.000000 -1.000000 -0.999887 1.0000 1.0000 1.0000
v -1.000000 1.000000 -1.000113 1.0000 1.0000 1.0000
v 1.071667 -1.000000 0.922906 1.0000 1.0000 1.0000
v 1.071650 1.000000 0.922681 1.0000 1.0000 1.0000
v 0.922802 -1.000000 -1.071546 1.0000 1.0000 1.0000
v 0.922785 1.000000 -1.071772 1.0000 1.0000 1.0000
v -0.922785 -1.000000 1.071772 1.0000 1.0000 1.0000
v -0.922802 1.000000 1.071546 1.0000 1.0000 1.0000
v -1.071650 -1.000000 -0.922681 1.0000 1.0000 1.0000
v -1.071667 1.000000 -0.922906 1.0000 1.0000 1.0000
v 1.137389 -1.000000 0.840579 1.0000 1.0000 1.0000
v 1.137355 1.000000 0.840355 1.0000 1.0000 1.0000
v 0.840484 -1.000000 -1.137260 1.0000 1.0000 1.0000
v 0.840450 1.000000 -1.137484 1.0000 1.0000 1.0000
v -0.840450 -1.000000 1.137484 1.0000 1.0000 1.0000
v -0.840484 1.000000 1.137260 1.0000 1.0000 1.0000
v -1.137355 -1.000000 -0.840355 1.0000 1.0000 1.0000
v -1.137389 1.000000 -0.840579 1.0000 1.0000 1.0000
v 1.196800 -1.000000 0.753589 1.0000 1.0000 1.0000
v 1.196750 1.000000 0.753368 1.0000 1.0000 1.0000
v 0.753503 -1.000000 -1.196665 1.0000 1.0000 1.0000
v 0.753453 1.000000 -1.196885 1.0000 1.0000 1.0000
v -0.753453 -1.000000 1.196885 1.0000 1.0000 1.0000
v -0.753503 1.000000 1.196665 1.0000 1.0000 1.0000
v -1.196750 -1.000000 -0.753368 1.0000 1.0000 1.0000
v -1.196800 1.000000 -0.753589 1.0000 1.0000 1.0000
v 1.249572 -1.000000 0.662417 1.0000 1.0000 1.0000
v 1.249505 1.000000 0.662201 1.0000 1.0000 1.0000
v 0.662342 -1.000000 -1.249431 1.0000 1.0000 1.0000
v 0.662276 1.000000 -1.249647 1.0000 1.0000 1.0000
v -0.662276 -1.000000 1.249647 1.0000 1.0000 1.0000
v -0.662342 1.000000 1.249431 1.0000 1.0000 1.0000
v -1.249505 -1.000000 -0.662201 1.0000 1.0000 1.0000
v -1.249572 1.000000 -0.662417 1.0000 1.0000 1.0000
v 1.295411 -1.000000 0.567571 1.0000 1.0000 1.0000
v 1.295329 1.000000 0.567360 1.0000 1.0000 1.0000
v 0.567507 -1.000000 -1.295264 1.0000 1.0000 1.0000
v 0.567424 1.000000 -1.295475 1.0000 1.0000 1.0000
v -0.567424 -1.000000 1.295475 1.0000 1.0000 1.0000
v -0.567507 1.000000 1.295264 1.0000 1.0000 1.0000
v -1.295329 -1.000000 -0.567360 1.0000 1.0000 1.0000
v -1.295411 1.000000 -0.567571 1.0000 1.0000 1.0000
v 1.334063 -1.000000 0.469575 1.0000 1.0000 1.0000
v 1.333966 1.000000 0.469371 1.0000 1.0000 1.0000
v 0.469522 -1.000000 -1.333912 1.0000 1.0000 1.0000
v 0.469425 1.000000 -1.334116 1.0000 1.0000 1.0000
v -0.469425 -1.000000 1.334116 1.0000 1.0000 1.0000
v -0.469522 1.000000 1.333912 1.0000 1.0000 1.0000
v -1.333966 -1.000000 -0.469371 1.0000 1.0000 1.0000
v -1.334063 1.000000 -0.469575 1.0000 1.0000 1.0000
v 1.365314 -1.000000 0.368975 1.0000 1.0000 1.0000
v 1.365202 1.000000 0.368779 1.0000 1.0000 1.0000
v 0.368933 -1.000000 -1.365160 1.0000 1.0000 1.0000
v 0.368821 1.000000 -1.365356 1.0000 1.0000 1.0000
v -0.368821 -1.000000 1.365356 1.0000 1.0000 1.0000
v -0.368933 1.000000 1.365160 1.0000 1.0000 1.0000
v -1.365202 -1.000000 -0.368779 1.0000 1.0000 1.0000
v -1.365314 1.000000 -0.368975 1.0000 1.0000 1.0000
v 1.388991 -1.000000 0.266328 1.0000 1.0000 1.0000
v 1.388864 1.000000 0.266140 1.0000 1.0000 1.0000
v 0.266297 -1.000000 -1.388834 1.0000 1.0000 1.0000
v 0.266170 1.000000 -1.389021 1.0000 1.0000 1.0000
v -0.266170 -1.000000 1.389021 1.0000 1.0000 1.0000
v -0.266297 1.000000 1.388834 1.0000 1.0000 1.0000
v -1.388864 -1.000000 -0.266140 1.0000 1.0000 1.0000
v -1.388991 1.000000 -0.266328 1.0000 1.0000 1.0000
v 1.404961 -1.000000 0.162203 1.0000 1.0000 1.0000
v 1.404821 1.000000 0.162025 1.0000 1.0000 1.0000
v 0.162184 -1.000000 -1.404803 1.0000 1.0000 1.0000
v 0.162044 1.000000 -1.404980 1.0000 1.0000 1.0000
v -0.162044 -1.000000 1.404980 1.0000 1.0000 1.0000
v -0.162184 1.000000 1.404803 1.0000 1.0000 1.0000
v -1.404821 -1.000000 -0.162025 1.0000 1.0000 1.0000
v -1.404961 1.000000 -0.162203 1.0000 1.0000 1.0000
v 1.413137 -1.000000 0.057178 1.0000 1.0000 1.0000
v 1.412984 1.000000 0.057011 1.0000 1.0000 1.0000
v 0.057171 -1.000000 -1.412977 1.0000 1.0000 1.0000
v 0.057018 1.000000 -1.413144 1.0000 1.0000 1.0000
v -0.057018 -1.000000 1.413144 1.0000 1.0000 1.0000
v -0.057171 1.000000 1.412977 1.0000 1.0000 1.0000
v -1.412984 -1.000000 -0.057011 1.0000 1.0000 1.0000
v -1.413137 1.000000 -0.057178 1.0000 1.0000 1.0000
v 1.413473 -1.000000 -0.048165 1.0000 1.0000 1.0000
v 1.413308 1.000000 -0.048319 1.0000 1.0000 1.0000
v -0.048159 -1.000000 -1.413313 1.0000 1.0000 1.0000
v -0.048325 1.000000 -1.413468 1.0000 1.0000 1.0000
v 0.048325 -1.000000 1.413468 1.0000 1.0000 1.0000
v 0.048159 1.000000 1.413313 1.0000 1.0000 1.0000
v -1.413308 -1.000000 0.048319 1.0000 1.0000 1.0000
v -1.413473 1.000000 0.048165 1.0000 1.0000 1.0000
v 1.405967 -1.000000 -0.153239 1.0000 1.0000 1.0000
v 1.405791 1.000000 -0.153381 1.0000 1.0000 1.0000
v -0.153222 -1.000000 -1.405808 1.0000 1.0000 1.0000
v -0.153399 1.000000 -1.405950 1.0000 1.0000 1.0000
v 0.153399 -1.000000 1.405950 1.0000 1.0000 1.0000
v 0.153222 1.000000 1.405808 1.0000 1.0000 1.0000
v -1.405791 -1.000000 0.153381 1.0000 1.0000 1.0000
v -1.405967 1.000000 0.153239 1.0000 1.0000 1.0000
v 1.721427 -0.184855 0.052390 1.0000 1.0000 1.0000
v 0.748965 1.561630 -0.011704 1.0000 1.0000 1.0000
v 0.526001 -0.902837 -1.381298 1.0000 1.0000 1.0000
v -0.446461 0.843649 -1.445391 1.0000 1.0000 1.0000
v 0.446461 -0.843649 1.445391 1.0000 1.0000 1.0000
v -0.526001 0.902837 1.381298 1.0000 1.0000 1.0000
v -0.748965 -1.561630 0.011704 1.0000 1.0000 1.0000
v -1.721427 0.184855 -0.052390 1.0000 1.0000 1.0000
v 1.572857 0.673788 0.268992 1.0000 1.0000 1.0000
v -0.109752 1.728239 0.030325 1.0000 1.0000 1.0000
v 1.063434 -0.488556 -1.276791 1.0000 1.0000 1.0000
v -0.619175 0.565894 -1.515458 1.0000 1.0000 1.0000
v 0.619175 -0.565894 1.515458 1.0000 1.0000 1.0000
v -1.063434 0.488556 1.276791 1.0000 1.0000 1.0000
v 0.109752 -1.728239 -0.030325 1.0000 1.0000 1.0000
v -1.572857 -0.673788 -0.268992 1.0000 1.0000 1.0000
v 1.000306 1.344474 0.438180 1.0000 1.0000 1.0000
v -0.938884 1.454915 -0.038624 1.0000 1.0000 1.0000
v 1.314207 0.131168 -1.120459 1.0000 1.0000 1.0000
v -0.624983 0.241609 -1.597263 1.0000 1.0000 1.0000
v 0.624983 -0.241609 1.597263 1.0000 1.0000 1.0000
v -1.314207 -0.131168 1.120459 1.0000 1.0000 1.0000
v 0.938884 -1.454915 0.038624 1.0000 1.0000 1.0000
v -1.000306 -1.344474 -0.438180 1.0000 1.0000 1.0000
v 0.158112 1.646412 0.514347 1.0000 1.0000 1.0000
v -1.514930 0.815337 -0.199965 1.0000 1.0000 1.0000
v 1.210722 0.789283 -0.954442 1.0000 1.0000 1.0000
v -0.462321 -0.041793 -1.668754 1.0000 1.0000 1.0000
v 0.462321 0.041793 1.668754 1.0000 1.0000 1.0000
v -1.210722 -0.789283 0.954442 1.0000 1.0000 1.0000
v 1.514930 -0.815337 0.199965 1.0000 1.0000 1.0000
v -0.158112 -1.646412 -0.514347 1.0000 1.0000 1.0000
v -0.726703 1.498211 0.476962 1.0000 1.0000 1.0000
v -1.682610 -0.018091 -0.410206 1.0000 1.0000 1.0000
v 0.780873 1.308385 -0.823493 1.0000 1.0000 1.0000
v -0.175035 -0.207918 -1.710660 1.0000 1.0000 1.0000
v 0.175035 0.207918 1.710660 1.0000 1.0000 1.0000
v -0.780873 -1.308385 0.823493 1.0000 1.0000 1.0000
v 1.682610 0.018091 0.410206 1.0000 1.0000 1.0000
v 0.726703 -1.498211 -0.476962 1.0000 1.0000 1.0000
v -1.415627 0.939820 0.336102 1.0000 1.0000 1.0000
v -1.396724 -0.820709 -0.612675 1.0000 1.0000 1.0000
v 0.140531 1.548546 -0.762909 1.0000 1.0000 1.0000
v 0.159434 -0.211984 -1.711686 1.0000 1.0000 1.0000
v -0.159434 0.211984 1.711686 1.0000 1.0000 1.0000
v -0.140531 -1.548546 0.762909 1.0000 1.0000 1.0000
v 1.396724 0.820709 0.612675 1.0000 1.0000 1.0000
v 1.415627 -0.939820 -0.336102 1.0000 1.0000 1.0000
v -1.722953 0.121761 0.129737 1.0000 1.0000 1.0000
v -0.734336 -1.376163 -0.752794 1.0000 1.0000 1.0000
v -0.537692 1.445027 -0.789023 1.0000 1.0000 1.0000
v 0.450925 -0.052896 -1.671554 1.0000 1.0000 1.0000
v -0.450925 0.052896 1.671554 1.0000 1.0000 1.0000
v 0.537692 -1.445027 0.789023 1.0000 1.0000 1.0000
v 0.734336 1.376163 0.752794 1.0000 1.0000 1.0000
v 1.722953 -0.121761 -0.129737 1.0000 1.0000 1.0000
v -1.565839 -0.735453 -0.086504 1.0000 1.0000 1.0000
v 0.126001 -1.534724 -0.792793 1.0000 1.0000 1.0000
v -1.070975 1.025733 -0.894794 1.0000 1.0000 1.0000
v 0.620865 0.226462 -1.601083 1.0000 1.0000 1.0000
v -0.620865 -0.226462 1.601083 1.0000 1.0000 1.0000
v 1.070975 -1.025733 0.894794 1.0000 1.0000 1.0000
v -0.126001 1.534724 0.792793 1.0000 1.0000 1.0000
v 1.565839 0.735453 0.086504 1.0000 1.0000 1.0000
v -0.986636 -1.400747 -0.254332 1.0000 1.0000 1.0000
v 0.952373 -1.253649 -0.721889 1.0000 1.0000 1.0000
v -1.315565 0.403690 -1.051712 1.0000 1.0000 1.0000
v 0.623444 0.550787 -1.519269 1.0000 1.0000 1.0000
v -0.623444 -0.550787 1.519269 1.0000 1.0000 1.0000
v 1.315565 -0.403690 1.051712 1.0000 1.0000 1.0000
v -0.952373 1.253649 0.721889 1.0000 1.0000 1.0000
v 0.986636 1.400747 0.254332 1.0000 1.0000 1.0000
v -0.141474 -1.694785 -0.328507 1.0000 1.0000 1.0000
v 1.522022 -0.608707 -0.559195 1.0000 1.0000 1.0000
v -1.205529 -0.253424 -1.217476 1.0000 1.0000 1.0000
v 0.457966 0.832653 -1.448165 1.0000 1.0000 1.0000
v -0.457966 -0.832653 1.448165 1.0000 1.0000 1.0000
v 1.205529 0.253424 1.217476 1.0000 1.0000 1.0000
v -1.522022 0.608707 0.559195 1.0000 1.0000 1.0000
v 0.141474 1.694785 0.328507 1.0000 1.0000 1.0000
v 0.741824 -1.538305 -0.289033 1.0000 1.0000 1.0000
v 1.681394 0.226252 -0.348568 1.0000 1.0000 1.0000
v -0.770531 -0.768478 -1.347404 1.0000 1.0000 1.0000
v 0.169039 0.996080 -1.406939 1.0000 1.0000 1.0000
v -0.169039 -0.996080 1.406939 1.0000 1.0000 1.0000
v 0.770531 0.768478 1.347404 1.0000 1.0000 1.0000
v -1.681394 -0.226252 0.348568 1.0000 1.0000 1.0000
v -0.741824 1.538305 0.289033 1.0000 1.0000 1.0000
v 1.431144 -0.964343 -0.144594 1.0000 1.0000 1.0000
v 1.393516 1.035303 -0.144825 1.0000 1.0000 1.0000
v -0.121838 -0.993484 -1.404514 1.0000 1.0000 1.0000
v -0.159465 1.006161 -1.404745 1.0000 1.0000 1.0000
v 0.171443 -0.987867 1.408661 1.0000 1.0000 1.0000
v 0.133816 1.011779 1.408430 1.0000 1.0000 1.0000
v -1.381539 -1.017009 0.148741 1.0000 1.0000 1.0000
v -1.419165 0.982637 0.148510 1.0000 1.0000 1.0000
vn -0.0000 -1.0000 -0.0000
vn -0.0000 -0.0001 -1.0000
vn -1.0000 -0.0000 -0.0000
vn -0.0000 1.0000 -0.0000
vn 1.0000 -0.0000 -0.0000
vn -0.0000 0.0001 1.0000
vn -0.0744 -0.0001 -0.9972
vn -0.9972 -0.0000 0.0744
vn 0.9972 -0.0000 -0.0744
vn 0.0744 0.0001 0.9972
vn -0.1485 -0.0001 -0.9889
vn -0.9889 -0.0000 0.1485
vn 0.9889 -0.0000 -0.1485
vn 0.1485 0.0001 0.9889
vn -0.2216 -0.0001 -0.9751
vn -0.9751 -0.0000 0.2216
vn 0.9751 -0.0000 -0.2216
vn 0.2216 0.0001 0.9751
vn -0.2936 -0.0001 -0.9559
vn -0.9559 -0.0000 0.2936
vn 0.9559 -0.0000 -0.2936
vn 0.2936 0.0001 0.9559
vn -0.3640 -0.0001 -0.9314
vn -0.9314 -0.0000 0.3640
vn 0.9314 -0.0000 -0.3640
vn 0.3640 0.0001 0.9314
vn -0.4323 -0.0001 -0.9017
vn -0.9017 -0.0000 0.4323
vn 0.9017 -0.0000 -0.4323
vn 0.4323 0.0001 0.9017
vn -0.4982 -0.0001 -0.8671
vn -0.8671 -0.0000 0.4982
vn 0.8671 -0.0000 -0.4982
vn 0.4982 0.0001 0.8671
vn -0.5613 -0.0001 -0.8276
vn -0.8276 -0.0000 0.5613
vn 0.8276 -0.0000 -0.5613
vn 0.5613 0.0001 0.8276
vn -0.6214 -0.0001 -0.7835
vn -0.7835 -0.0000 0.6214
vn 0.7835 -0.0000 -0.6214
vn 0.6214 0.0001 0.7835
vn -0.6780 -0.0001 -0.7351
vn -0.7351 -0.0000 0.6780
vn 0.7351 -0.0000 -0.6780
vn 0.6780 0.0001 0.7351
vn -0.7308 -0.0001 -0.6826
vn -0.6826 -0.0000 0.7308
vn 0.6826 -0.0000 -0.7308
vn 0.7308 0.0001 0.6826
vn -0.7796 -0.0001 -0.6263
vn -0.6263 -0.0000 0.7796
vn 0.6263 -0.0000 -0.7796
vn 0.7796 0.0001 0.6263
vn 0.4862 -0.8733 0.0320
vn -0.5977 -0.3591 -0.7168
vn -0.6375 -0.3294 0.6965
vn -0.4862 0.8733 -0.0320
vn 0.6375 0.3294 -0.6965
vn 0.5977 0.3591 0.7168
vn 0.8413 -0.5273 0.1192
vn -0.2546 -0.5812 -0.7729
vn -0.4768 -0.6198 0.6232
vn -0.8413 0.5273 -0.1192
vn 0.4768 0.6198 -0.6232
vn 0.2546 0.5812 0.7729
vn 0.9696 -0.0553 0.2383
vn 0.1571 -0.6067 -0.7793
vn -0.1877 -0.7930 0.5795
vn -0.9696 0.0553 -0.2383
vn 0.1877 0.7930 -0.5795
vn -0.1571 0.6067 0.7793
vn 0.8366 0.4155 0.3571
vn 0.5264 -0.4285 -0.7344
vn 0.1521 -0.8023 0.5772
vn -0.8366 -0.4155 -0.3571
vn -0.1521 0.8023 -0.5772
vn -0.5264 0.4285 0.7344
vn 0.4780 0.7581 0.4435
vn 0.7538 -0.0948 -0.6502
vn 0.4509 -0.6451 0.6168
vn -0.4780 -0.7581 -0.4435
vn -0.4509 0.6451 -0.6168
vn -0.7538 0.0948 0.6502
vn -0.0094 0.8803 0.4743
vn 0.7781 0.3045 -0.5495
vn 0.6281 -0.3639 0.6878
vn 0.0094 -0.8803 -0.4743
vn -0.6281 0.3639 -0.6878
vn -0.7781 -0.3045 0.5495
vn -0.4942 0.7490 0.4412
vn 0.5926 0.6617 -0.4593
vn 0.6360 -0.0344 0.7709
vn 0.4942 -0.7490 -0.4412
vn -0.6360 0.0344 -0.7709
vn -0.5926 -0.6617 0.4593
vn -0.8459 0.3997 0.3531
vn 0.2473 0.8806 -0.4041
vn 0.4725 0.2545 0.8438
vn 0.8459 -0.3997 -0.3531
vn -0.4725 -0.2545 -0.8438
vn -0.2473 -0.8806 0.4041
vn -0.9695 -0.0734 0.2337
vn -0.1646 0.9022 -0.3987
vn 0.1816 0.4250 0.8868
vn 0.9695 0.0734 -0.2337
vn -0.1816 -0.4250 -0.8868
vn 0.1646 -0.9022 0.3987
vn -0.8318 -0.5430 0.1153
vn -0.5321 0.7206 -0.4445
vn -0.1582 0.4311 0.8883
vn 0.8318 0.5430 -0.1153
vn 0.1582 -0.4311 -0.8883
vn 0.5321 -0.7206 0.4445
vn -0.4699 -0.8822 0.0297
vn -0.7562 0.3848 -0.5292
vn -0.4554 0.2711 0.8480
vn 0.4699 0.8822 -0.0297
vn 0.4554 -0.2711 -0.8480
vn 0.7562 -0.3848 0.5292
vn 0.0187 -0.9998 -0.0000
vn -0.7765 -0.0147 -0.6300
vn -0.6299 -0.0118 0.7766
vn -0.0187 0.9998 -0.0000
vn 0.6299 0.0118 -0.7766
vn 0.7765 0.0147 0.6300
vt 0.625000 0.500000
vt 0.875000 0.500000
vt 0.875000 0.750000
vt 0.625000 0.750000
vt 0.375000 0.750000
vt 0.625000 1.000000
vt 0.375000 1.000000
vt 0.375000 0.000000
vt 0.625000 0.000000
vt 0.625000 0.250000
vt 0.375000 0.250000
vt 0.125000 0.500000
vt 0.375000 0.500000
vt 0.125000 0.750000
s 0
g off
g Cube_Material
usemtl Material
f 1/1/1 5/2/1 7/3/1 3/4/1
f 4/5/2 3/4/2 7/6/2 8/7/2
f 8/8/3 7/9/3 5/10/3 6/11/3
f 6/12/4 2/13/4 4/5/4 8/14/4
f 2/13/5 1/1/5 3/4/5 4/5/5
f 6/11/6 5/10/6 1/1/6 2/13/6
f 9/1/1 13/2/1 15/3/1 11/4/1
f 12/5/7 11/4/7 15/6/7 16/7/7
f 16/8/8 15/9/8 13/10/8 14/11/8
f 14/12/4 10/13/4 12/5/4 16/14/4
f 10/13/9 9/1/9 11/4/9 12/5/9
f 14/11/10 13/10/10 9/1/10 10/13/10
f 17/1/1 21/2/1 23/3/1 19/4/1
f 20/5/11 19/4/11 23/6/11 24/7/11
f 24/8/12 23/9/12 21/10/12 22/11/12
f 22/12/4 18/13/4 20/5/4 24/14/4
f 18/13/13 17/1/13 19/4/13 20/5/13
f 22/11/14 21/10/14 17/1/14 18/13/14
f 25/1/1 29/2/1 31/3/1 27/4/1
f 28/5/15 27/4/15 31/6/15 32/7/15
f 32/8/16 31/9/16 29/10/16 30/11/16
f 30/12/4 26/13/4 28/5/4 32/14/4
f 26/13/17 25/1/17 27/4/17 28/5/17
f 30/11/18 29/10/18 25/1/18 26/13/18
f 33/1/1 37/2/1 39/3/1 35/4/1
f 36/5/19 35/4/19 39/6/19 40/7/19
f 40/8/20 39/9/20 37/10/20 38/11/20
f 38/12/4 34/13/4 36/5/4 40/14/4
f 34/13/21 33/1/21 35/4/21 36/5/21
f 38/11/22 37/10/22 33/1/22 34/13/22
f 41/1/1 45/2/1 47/3/1 43/4/1
f 44/5/23 43/4/23 47/6/23 48/7/23
f 48/8/24 47/9/24 45/10/24 46/11/24
f 46/12/4 42/13/4 44/5/4 48/14/4
f 42/13/25 41/1/25 43/4/25 44/5/25
f 46/11/26 45/10/26 41/1/26 42/13/26
f 49/1/1 53/2/1 55/3/1 51/4/1
f 52/5/27 51/4/27 55/6/27 56/7/27
f 56/8/28 55/9/28 53/10/28 54/11/28
f 54/12/4 50/13/4 52/5/4 56/14/4
f 50/13/29 49/1/29 51/4/29 52/5/29
f 54/11/30 53/10/30 49/1/30 50/13/30
f 57/1/1 61/2/1 63/3/1 59/4/1
f 60/5/31 59/4/31 63/6/31 64/7/31
f 64/8/32 63/9/32 61/10/32 62/11/32
f 62/12/4 58/13/4 60/5/4 64/14/4
f 58/13/33 57/1/33 59/4/33 60/5/33
f 62/11/34 61/10/34 57/1/34 58/13/34
f 65/1/1 69/2/1 71/3/1 67/4/1
f 68/5/35 67/4/35 71/6/35 72/7/35
f 72/8/36 71/9/36 69/10/36 70/11/36
f 70/12/4 66/13/4 68/5/4 72/14/4
f 66/13/37 65/1/37 67/4/37 68/5/37
f 70/11/38 69/10/38 65/1/38 66/13/38
f 73/1/1 77/2/1 79/3/1 75/4/1
f 76/5/39 75/4/39 79/6/39 80/7/39
f 80/8/40 79/9/40 77/10/40 78/11/40
f 78/12/4 74/13/4 76/5/4 80/14/4
f 74/13/41 73/1/41 75/4/41 76/5/41
f 78/11/42 77/10/42 73/1/42 74/13/42
f 81/1/1 85/2/1 87/3/1 83/4/1
f 84/5/43 83/4/43 87/6/43 88/7/43
f 88/8/44 87/9/44 85/10/44 86/11/44
f 86/12/4 82/13/4 84/5/4 88/14/4
f 82/13/45 81/1/45 83/4/45 84/5/45
f 86/11/46 85/10/46 81/1/46 82/13/46
f 89/1/1 93/2/1 95/3/1 91/4/1
f 92/5/47 91/4/47 95/6/47 96/7/47
f 96/8/48 95/9/48 93/10/48 94/11/48
f 94/12/4 90/13/4 92/5/4 96/14/4
f 90/13/49 89/1/49 91/4/49 92/5/49
f 94/11/50 93/10/50 89/1/50 90/13/50
f 97/1/1 101/2/1 103/3/1 99/4/1
f 100/5/51 99/4/51 103/6/51 104/7/51
f 104/8/52 103/9/52 101/10/52 102/11/52
f 102/12/4 98/13/4 100/5/4 104/14/4
f 98/13/53 97/1/53 99/4/53 100/5/53
f 102/11/54 101/10/54 97/1/54 98/13/54
f 105/1/55 109/2/55 111/3/55 107/4/55
f 108/5/56 107/4/56 111/6/56 112/7/56
f 112/8/57 111/9/57 109/10/57 110/11/57
f 110/12/58 106/13/58 108/5/58 112/14/58
f 106/13/59 105/1/59 107/4/59 108/5/59
f 110/11/60 109/10/60 105/1/60 106/13/60
f 113/1/61 117/2/61 119/3/61 115/4/61
f 116/5/62 115/4/62 119/6/62 120/7/62
f 120/8/63 119/9/63 117/10/63 118/11/63
f 118/12/64 114/13/64 116/5/64 120/14/64
f 114/13/65 113/1/65 115/4/65 116/5/65
f 118/11/66 117/10/66 113/1/66 114/13/66
f 121/1/67 125/2/67 127/3/67 123/4/67
f 124/5/68 123/4/68 127/6/68 128/7/68
f 128/8/69 127/9/69 125/10/69 126/11/69
f 126/12/70 122/13/70 124/5/70 128/14/70
f 122/13/71 121/1/71 123/4/71 124/5/71
f 126/11/72 125/10/72 121/1/72 122/13/72
f 129/1/73 133/2/73 135/3/73 131/4/73
f 132/5/74 131/4/74 135/6/74 136/7/74
f 136/8/75 135/9/75 133/10/75 134/11/75
f 134/12/76 130/13/76 132/5/76 136/14/76
f 130/13/77 129/1/77 131/4/77 132/5/77
f 134/11/78 133/10/78 129/1/78 130/13/78
f 137/1/79 141/2/79 143/3/79 139/4/79
f 140/5/80 139/4/80 143/6/80 144/7/80
f 144/8/81 143/9/81 141/10/81 142/11/81
f 142/12/82 138/13/82 140/5/82 144/14/82
f 138/13/83 137/1/83 139/4/83 140/5/83
f 142/11/84 141/10/84 137/1/84 138/13/84
f 145/1/85 149/2/85 151/3/85 147/4/85
f 148/5/86 147/4/86 151/6/86 152/7/86
f 152/8/87 151/9/87 149/10/87 150/11/87
f 150/12/88 146/13/88 148/5/88 152/14/88
f 146/13/89 145/1/89 147/4/89 148/5/89
f 150/11/90 149/10/90 145/1/90 146/13/90
f 153/1/91 157/2/91 159/3/91 155/4/91
f 156/5/92 155/4/92 159/6/92 160/7/92
f 160/8/93 159/9/93 157/10/93 158/11/93
f 158/12/94 154/13/94 156/5/94 160/14/94
f 154/13/95 153/1/95 155/4/95 156/5/95
f 158/11/96 157/10/96 153/1/96 154/13/96
f 161/1/97 165/2/97 167/3/97 163/4/97
f 164/5/98 163/4/98 167/6/98 168/7/98
f 168/8/99 167/9/99 165/10/99 166/11/99
f 166/12/100 162/13/100 164/5/100 168/14/100
f 162/13/101 161/1/101 163/4/101 164/5/101
f 166/11/102 165/10/102 161/1/102 162/13/102
f 169/1/103 173/2/103 175/3/103 171/4/103
f 172/5/104 171/4/104 175/6/104 176/7/104
f 176/8/105 175/9/105 173/10/105 174/11/105
f 174/12/106 170/13/106 172/5/106 176/14/106
f 170/13/107 169/1/107 171/4/107 172/5/107
f 174/11/108 173/10/108 169/1/108 170/13/108
f 177/1/109 181/2/109 183/3/109 179/4/109
f 180/5/110 179/4/110 183/6/110 184/7/110
f 184/8/111 183/9/111 181/10/111 182/11/111
f 182/12/112 178/13/112 180/5/112 184/14/112
f 178/13/113 177/1/113 179/4/113 180/5/113
f 182/11/114 181/10/114 177/1/114 178/13/114
f 185/1/115 189/2/115 191/3/115 187/4/115
f 188/5/116 187/4/116 191/6/116 192/7/116
f 192/8/117 191/9/117 189/10/117 190/11/117
f 190/12/118 186/13/118 188/5/118 192/14/118
f 186/13/119 185/1/119 187/4/119 188/5/119
f 190/11/120 189/10/120 185/1/120 186/13/120
f 193/1/121 197/2/121 199/3/121 195/4/121
f 196/5/122 195/4/122 199/6/122 200/7/122
f 200/8/123 199/9/123 197/10/123 198/11/123
f 198/12/124 194/13/124 196/5/124 200/14/124
f 194/13/125 193/1/125 195/4/125 196/5/125
f 198/11/126 197/10/126 193/1/126 194/13/126
